<svg width="113" height="48" viewBox="0 0 113 48" fill="none" xmlns="http://www.w3.org/2000/svg">
<path d="M13.8698 12.677H14.8498C15.6269 12.677 16.3721 12.9857 16.9216 13.5352C17.4711 14.0847 17.7798 14.8299 17.7798 15.607C17.7798 21.307 17.7608 27.017 17.7798 32.722C17.7798 32.791 17.7798 32.86 17.7798 32.93C17.7798 33.317 17.8378 33.7 17.8528 34.086C17.8128 33.003 17.8878 34.164 17.9698 34.498C18.0586 34.8604 18.1664 35.2179 18.2928 35.569C18.3108 35.62 18.3448 35.691 18.3758 35.764L18.4438 35.911C18.6149 36.254 18.8038 36.5878 19.0098 36.911C19.0938 37.043 19.1808 37.173 19.2708 37.301L19.2798 37.312L20.7338 38.766C20.8678 38.858 21.0008 38.951 21.1338 39.038C21.4433 39.2356 21.7627 39.4171 22.0908 39.582C22.2028 39.639 22.3628 39.687 22.4788 39.756C22.8294 39.8818 23.1862 39.9896 23.5478 40.079C23.8818 40.161 25.0428 40.236 23.9588 40.196C24.3808 40.212 24.7988 40.266 25.2218 40.27C25.5038 40.27 25.7858 40.259 26.0678 40.237C26.1358 40.231 26.2488 40.209 26.3498 40.198H26.3658C26.6771 40.1373 26.9851 40.0633 27.2898 39.976C27.4798 39.921 27.6898 39.826 27.8898 39.746C27.8508 39.784 27.9298 39.795 28.0818 39.717L28.2548 39.631C28.2848 39.625 28.3148 39.618 28.3448 39.614L28.2648 39.626C28.3838 39.568 28.5018 39.509 28.6188 39.446C28.8855 39.304 29.1431 39.151 29.3918 38.987C29.4718 38.935 29.5498 38.881 29.6268 38.827L29.5878 38.879C29.6018 38.86 29.6188 38.841 29.6348 38.822L29.8038 38.705C29.9598 38.605 29.9748 38.526 29.9038 38.562C30.1038 38.397 30.3218 38.24 30.4808 38.081C30.6728 37.888 30.8578 37.689 31.0348 37.481C31.0928 37.397 31.1758 37.304 31.2158 37.246C31.4058 36.9713 31.5824 36.689 31.7458 36.399C31.8673 36.1084 32.0059 35.8252 32.1608 35.551C32.2038 35.43 32.2458 35.309 32.2848 35.187C32.3848 34.862 32.4758 34.532 32.5478 34.2C32.5728 34.084 32.5938 33.968 32.6158 33.851C32.6418 33.509 32.6658 33.169 32.6688 32.826C32.6818 31.197 32.6688 29.567 32.6688 27.937V15.607C32.6688 14.8299 32.9775 14.0847 33.527 13.5352C34.0765 12.9857 34.8217 12.677 35.5988 12.677H36.5788C37.3559 12.677 38.1011 12.9857 38.6506 13.5352C39.2001 14.0847 39.5088 14.8299 39.5088 15.607V16.366C39.5088 21.851 39.5558 27.338 39.5088 32.823C39.4611 36.597 37.9413 40.2032 35.2732 42.8728C32.6051 45.5424 28.9998 47.0643 25.2258 47.114C25.1638 47.114 25.1018 47.114 25.0408 47.108C18.4188 46.955 12.2728 42.077 11.1908 35.408C10.9266 33.1801 10.8423 30.9345 10.9388 28.693V15.607C10.9388 15.2222 11.0146 14.8411 11.1619 14.4855C11.3092 14.13 11.5251 13.8069 11.7973 13.5348C12.0695 13.2627 12.3926 13.0469 12.7482 12.8997C13.1038 12.7526 13.4849 12.6769 13.8698 12.677Z" fill="#B9B9B9"/>
<path d="M25.6619 34.433H24.6819C23.9048 34.433 23.1595 34.1243 22.6101 33.5748C22.0606 33.0253 21.7519 32.2801 21.7519 31.503C21.7519 25.798 21.7699 20.092 21.7519 14.388C21.7519 14.318 21.7519 14.249 21.7519 14.18C21.7519 13.792 21.6939 13.409 21.6789 13.023C21.7189 14.107 21.6439 12.946 21.5619 12.612C21.4728 12.2493 21.365 11.8915 21.2389 11.54C21.2209 11.49 21.1859 11.418 21.1559 11.345L21.0879 11.199C20.9172 10.8558 20.7282 10.522 20.5219 10.199C20.4379 10.067 20.3509 9.93701 20.2609 9.80901L20.2519 9.798L18.7979 8.34401C18.6639 8.25301 18.5319 8.15901 18.3979 8.07201C18.0883 7.87462 17.7689 7.69305 17.4409 7.528C17.3279 7.471 17.1689 7.428 17.0529 7.354C16.7019 7.22864 16.3447 7.12117 15.9829 7.032C15.6499 6.95 14.4889 6.87501 15.5719 6.91501C15.1499 6.89901 14.7319 6.84501 14.3099 6.84201C14.0279 6.84201 13.7449 6.853 13.4639 6.875C13.3959 6.875 13.2829 6.90301 13.1819 6.91301H13.1649C12.8535 6.97368 12.5456 7.048 12.2409 7.136C12.0509 7.19 11.8409 7.28501 11.6409 7.36601C11.6799 7.32801 11.6009 7.317 11.4489 7.395C11.3909 7.425 11.3339 7.45301 11.2759 7.48201C11.2459 7.48801 11.2159 7.495 11.1859 7.498L11.2659 7.48601C11.1469 7.54501 11.0289 7.603 10.9119 7.666C10.6479 7.808 10.3899 7.96601 10.1389 8.12601C10.0589 8.17801 9.98088 8.231 9.90388 8.285L9.94386 8.23401C9.92986 8.25301 9.91289 8.272 9.89589 8.291C9.83989 8.33 9.78388 8.369 9.72688 8.407C9.57088 8.507 9.55588 8.587 9.62688 8.55C9.42688 8.716 9.20888 8.87201 9.04988 9.03101C8.85721 9.22301 8.67222 9.42301 8.49489 9.63101C8.43689 9.71601 8.35389 9.80801 8.31389 9.86601C8.12456 10.1393 7.94789 10.4217 7.78389 10.713C7.66254 11.0037 7.52395 11.2868 7.36888 11.561C7.32555 11.6817 7.28422 11.8033 7.24489 11.926C7.14489 12.25 7.05486 12.58 6.98286 12.913C6.95686 13.029 6.93686 13.146 6.91386 13.262C6.88886 13.604 6.86489 13.944 6.86189 14.288C6.84789 15.917 6.86189 17.547 6.86189 19.177V31.505C6.86163 32.2822 6.55271 33.0274 6.00307 33.5769C5.45343 34.1263 4.70807 34.435 3.93089 34.435H2.95189C2.17471 34.435 1.42935 34.1263 0.879715 33.5769C0.330074 33.0274 0.021154 32.2822 0.0208889 31.505V30.745C0.0208889 25.261 -0.0261111 19.773 0.0208889 14.289C0.0693029 10.5156 1.58932 6.91023 4.25709 4.24115C6.92487 1.57207 10.5295 0.0502631 14.3029 0C14.3639 0 14.4259 1.19628e-05 14.4869 0.00601196C21.1089 0.159012 27.2549 5.03701 28.3369 11.706C28.6011 13.9336 28.6854 16.1789 28.5889 18.42V31.506C28.5878 32.282 28.2791 33.0258 27.7304 33.5745C27.1817 34.1232 26.4378 34.4319 25.6619 34.433Z" fill="#E3E3E3"/>
<path d="M50.25 18.999V30.279H48.794V18.999H50.25ZM62.0949 24.631C62.0949 25.7723 61.8655 26.7697 61.4069 27.623C60.9482 28.4657 60.2709 29.1217 59.3749 29.591C58.4895 30.0497 57.4229 30.279 56.1749 30.279H52.5909V18.999H56.1749C57.4229 18.999 58.4895 19.2283 59.3749 19.687C60.2709 20.135 60.9482 20.7857 61.4069 21.639C61.8655 22.4817 62.0949 23.479 62.0949 24.631ZM56.0629 28.967C57.5349 28.967 58.6602 28.5883 59.4389 27.831C60.2175 27.0737 60.6069 26.007 60.6069 24.631C60.6069 23.255 60.2175 22.1883 59.4389 21.431C58.6709 20.663 57.5455 20.279 56.0629 20.279H54.0469V28.967H56.0629ZM65.5156 20.183V24.039H69.8036V25.159H65.5156V29.095H70.2836V30.279H64.0596V18.999H70.2836V20.183H65.5156ZM80.9214 30.279H79.4654L73.6094 21.367V30.279H72.1534V18.999H73.6094L79.4654 27.927V18.999H80.9214V30.279ZM90.1747 18.999V20.183H86.9907V30.279H85.5347V20.183H82.3507V18.999H90.1747ZM93.0781 18.999V30.279H91.6221V18.999H93.0781ZM102.331 18.999V20.183H99.147V30.279H97.691V20.183H94.507V18.999H102.331ZM111.794 18.999L108.098 26.007V30.279H106.626V26.007L102.914 18.999H104.61L107.378 24.455L110.13 18.999H111.794Z" fill="#B9B9B9"/>
<path d="M66.754 39.636C66.4273 39.636 66.1333 39.58 65.872 39.468C65.6106 39.3514 65.4053 39.188 65.256 38.978C65.1066 38.768 65.032 38.523 65.032 38.243H65.886C65.9046 38.453 65.9863 38.6257 66.131 38.761C66.2803 38.8964 66.488 38.964 66.754 38.964C67.0293 38.964 67.244 38.8987 67.398 38.768C67.552 38.6327 67.629 38.46 67.629 38.25C67.629 38.0867 67.58 37.9537 67.482 37.851C67.3886 37.7484 67.2696 37.669 67.125 37.613C66.985 37.557 66.789 37.4964 66.537 37.431C66.2196 37.347 65.9606 37.263 65.76 37.179C65.564 37.0904 65.396 36.955 65.256 36.773C65.116 36.591 65.046 36.3484 65.046 36.045C65.046 35.765 65.116 35.52 65.256 35.31C65.396 35.1 65.592 34.939 65.844 34.827C66.096 34.715 66.3876 34.659 66.719 34.659C67.1903 34.659 67.5753 34.778 67.874 35.016C68.1773 35.2494 68.3453 35.5714 68.378 35.982H67.496C67.482 35.8047 67.398 35.653 67.244 35.527C67.09 35.401 66.887 35.338 66.635 35.338C66.4063 35.338 66.2196 35.3964 66.075 35.513C65.9303 35.6297 65.858 35.7977 65.858 36.017C65.858 36.1664 65.9023 36.29 65.991 36.388C66.0843 36.4814 66.201 36.556 66.341 36.612C66.481 36.668 66.6723 36.7287 66.915 36.794C67.237 36.8827 67.4983 36.9714 67.699 37.06C67.9043 37.1487 68.077 37.2864 68.217 37.473C68.3616 37.655 68.434 37.9 68.434 38.208C68.434 38.4554 68.3663 38.6887 68.231 38.908C68.1003 39.1274 67.9066 39.3047 67.65 39.44C67.398 39.5707 67.0993 39.636 66.754 39.636ZM70.1736 38.943H71.8186V39.587H69.3756V34.722H70.1736V38.943ZM74.7049 39.636C74.2523 39.636 73.8346 39.531 73.4519 39.321C73.0739 39.1064 72.7729 38.81 72.5489 38.432C72.3296 38.0494 72.2199 37.62 72.2199 37.144C72.2199 36.668 72.3296 36.241 72.5489 35.863C72.7729 35.485 73.0739 35.191 73.4519 34.981C73.8346 34.7664 74.2523 34.659 74.7049 34.659C75.1623 34.659 75.5799 34.7664 75.9579 34.981C76.3406 35.191 76.6416 35.485 76.8609 35.863C77.0803 36.241 77.1899 36.668 77.1899 37.144C77.1899 37.62 77.0803 38.0494 76.8609 38.432C76.6416 38.81 76.3406 39.1064 75.9579 39.321C75.5799 39.531 75.1623 39.636 74.7049 39.636ZM74.7049 38.943C75.0269 38.943 75.3139 38.8707 75.5659 38.726C75.8179 38.5767 76.0139 38.3667 76.1539 38.096C76.2986 37.8207 76.3709 37.5034 76.3709 37.144C76.3709 36.7847 76.2986 36.4697 76.1539 36.199C76.0139 35.9284 75.8179 35.7207 75.5659 35.576C75.3139 35.4314 75.0269 35.359 74.7049 35.359C74.3829 35.359 74.0959 35.4314 73.8439 35.576C73.5919 35.7207 73.3936 35.9284 73.2489 36.199C73.1089 36.4697 73.0389 36.7847 73.0389 37.144C73.0389 37.5034 73.1089 37.8207 73.2489 38.096C73.3936 38.3667 73.5919 38.5767 73.8439 38.726C74.0959 38.8707 74.3829 38.943 74.7049 38.943ZM81.4962 36.122C81.3702 35.8794 81.1952 35.6974 80.9712 35.576C80.7472 35.45 80.4882 35.387 80.1942 35.387C79.8722 35.387 79.5852 35.4594 79.3332 35.604C79.0812 35.7487 78.8829 35.954 78.7382 36.22C78.5982 36.486 78.5282 36.794 78.5282 37.144C78.5282 37.494 78.5982 37.8044 78.7382 38.075C78.8829 38.341 79.0812 38.5464 79.3332 38.691C79.5852 38.8357 79.8722 38.908 80.1942 38.908C80.6282 38.908 80.9805 38.7867 81.2512 38.544C81.5219 38.3014 81.6875 37.9724 81.7482 37.557H79.9212V36.92H82.6022V37.543C82.5509 37.921 82.4155 38.2687 82.1962 38.586C81.9815 38.9034 81.6992 39.1577 81.3492 39.349C81.0039 39.5357 80.6189 39.629 80.1942 39.629C79.7369 39.629 79.3192 39.524 78.9412 39.314C78.5632 39.0994 78.2622 38.803 78.0382 38.425C77.8189 38.047 77.7092 37.62 77.7092 37.144C77.7092 36.668 77.8189 36.241 78.0382 35.863C78.2622 35.485 78.5632 35.191 78.9412 34.981C79.3239 34.7664 79.7415 34.659 80.1942 34.659C80.7122 34.659 81.1719 34.7874 81.5732 35.044C81.9792 35.296 82.2732 35.6554 82.4552 36.122H81.4962ZM86.3223 38.593H84.2853L83.9353 39.587H83.1023L84.8453 34.715H85.7693L87.5123 39.587H86.6723L86.3223 38.593ZM86.0983 37.942L85.3073 35.681L84.5093 37.942H86.0983ZM92.2671 39.587H91.4691L89.0681 35.954V39.587H88.2701V34.715H89.0681L91.4691 38.341V34.715H92.2671V39.587ZM99.0184 34.722V39.587H98.2204V37.459H95.9314V39.587H95.1334V34.722H95.9314V36.808H98.2204V34.722H99.0184ZM100.867 35.366V36.794H102.547V37.445H100.867V38.936H102.757V39.587H100.069V34.715H102.757V35.366H100.867ZM106.267 39.587L105.147 37.641H104.538V39.587H103.74V34.722H105.42C105.793 34.722 106.108 34.7874 106.365 34.918C106.626 35.0487 106.82 35.2237 106.946 35.443C107.077 35.6624 107.142 35.9074 107.142 36.178C107.142 36.4954 107.049 36.7847 106.862 37.046C106.68 37.3027 106.398 37.4777 106.015 37.571L107.219 39.587H106.267ZM104.538 37.004H105.42C105.719 37.004 105.943 36.9294 106.092 36.78C106.246 36.6307 106.323 36.43 106.323 36.178C106.323 35.926 106.248 35.73 106.099 35.59C105.95 35.4454 105.723 35.373 105.42 35.373H104.538V37.004ZM108.961 35.366V36.794H110.641V37.445H108.961V38.936H110.851V39.587H108.163V34.715H110.851V35.366H108.961Z" fill="#B9B9B9"/>
</svg>
