<svg width="44" height="49" viewBox="0 0 44 49" fill="none" xmlns="http://www.w3.org/2000/svg">
<g filter="url(#filter0_d_359_6570)">
<rect width="43" height="49" fill="#4F5955"/>
<path d="M27.5508 21.8164C28.0977 21.4062 28.5898 20.9141 28.9727 20.3398C28.4805 20.5586 27.9062 20.7227 27.332 20.7773C27.9336 20.4219 28.3711 19.875 28.5898 19.1914C28.043 19.5195 27.4141 19.7656 26.7852 19.9023C26.2383 19.3281 25.5 19 24.6797 19C23.0938 19 21.8086 20.2852 21.8086 21.8711C21.8086 22.0898 21.8359 22.3086 21.8906 22.5273C19.5117 22.3906 17.3789 21.2422 15.957 19.5195C15.7109 19.9297 15.5742 20.4219 15.5742 20.9688C15.5742 21.9531 16.0664 22.8281 16.8594 23.3477C16.3945 23.3203 15.9297 23.2109 15.5469 22.9922V23.0195C15.5469 24.4141 16.5312 25.5625 17.8438 25.8359C17.625 25.8906 17.3516 25.9453 17.1055 25.9453C16.9141 25.9453 16.75 25.918 16.5586 25.8906C16.9141 27.0391 17.9805 27.8594 19.2383 27.8867C18.2539 28.6523 17.0234 29.1172 15.6836 29.1172C15.4375 29.1172 15.2188 29.0898 15 29.0625C16.2578 29.8828 17.7617 30.3477 19.4023 30.3477C24.6797 30.3477 27.5508 26 27.5508 22.1992C27.5508 22.0625 27.5508 21.9531 27.5508 21.8164Z" fill="white"/>
</g>
<defs>
<filter id="filter0_d_359_6570" x="0" y="0" width="44" height="49" filterUnits="userSpaceOnUse" color-interpolation-filters="sRGB">
<feFlood flood-opacity="0" result="BackgroundImageFix"/>
<feColorMatrix in="SourceAlpha" type="matrix" values="0 0 0 0 0 0 0 0 0 0 0 0 0 0 0 0 0 0 127 0" result="hardAlpha"/>
<feOffset dx="1"/>
<feColorMatrix type="matrix" values="0 0 0 0 0.376471 0 0 0 0 0.411765 0 0 0 0 0.4 0 0 0 1 0"/>
<feBlend mode="normal" in2="BackgroundImageFix" result="effect1_dropShadow_359_6570"/>
<feBlend mode="normal" in="SourceGraphic" in2="effect1_dropShadow_359_6570" result="shape"/>
</filter>
</defs>
</svg>
